{"asset":{"generator":"3D Builder","version":"2.0"},"scene":0,"scenes":[{"nodes":[0,1,2,3,4,5,6,7,8,9,10,11,12,13,14,15,16,17,18,19]}],"nodes":[{"mesh":0,"matrix":[1,0,0,0,0,-1.1920928955078125E-7,-0.99999988079071045,0,0,0.99999988079071045,-1.1920928955078125E-7,0,-0.48609882593154907,0.22046826779842377,-0.32226037979125977,1]},{"mesh":1,"matrix":[1,0,0,0,0,-1.1920928955078125E-7,-0.99999988079071045,0,0,0.99999988079071045,-1.1920928955078125E-7,0,-0.48609882593154907,0.22046826779842377,-0.32226037979125977,1]},{"mesh":2,"matrix":[1,0,0,0,0,-1.1920928955078125E-7,-0.99999988079071045,0,0,0.99999988079071045,-1.1920928955078125E-7,0,-0.48609882593154907,0.22046826779842377,-0.32226037979125977,1]},{"mesh":3,"matrix":[1,0,0,0,0,-1.1920928955078125E-7,-0.99999988079071045,0,0,0.99999988079071045,-1.1920928955078125E-7,0,-0.48609882593154907,0.22046826779842377,-0.32226037979125977,1]},{"mesh":4,"matrix":[1,0,0,0,0,-1.1920928955078125E-7,-0.99999988079071045,0,0,0.99999988079071045,-1.1920928955078125E-7,0,-0.48609882593154907,0.22046826779842377,-0.32226037979125977,1]},{"mesh":5,"matrix":[1,0,0,0,0,-1.1920928955078125E-7,-0.99999988079071045,0,0,0.99999988079071045,-1.1920928955078125E-7,0,-0.48609882593154907,0.22046826779842377,-0.32226037979125977,1]},{"mesh":6,"matrix":[1,0,0,0,0,-1.1920928955078125E-7,-0.99999988079071045,0,0,0.99999988079071045,-1.1920928955078125E-7,0,-0.48609882593154907,0.22046826779842377,-0.32226037979125977,1]},{"mesh":7,"matrix":[1,0,0,0,0,-1.1920928955078125E-7,-0.99999988079071045,0,0,0.99999988079071045,-1.1920928955078125E-7,0,-0.48609882593154907,0.22046826779842377,-0.32226037979125977,1]},{"mesh":8,"matrix":[1,0,0,0,0,-1.1920928955078125E-7,-0.99999988079071045,0,0,0.99999988079071045,-1.1920928955078125E-7,0,-0.48609882593154907,0.22046826779842377,-0.32226037979125977,1]},{"mesh":9,"matrix":[1,0,0,0,0,-1.1920928955078125E-7,-0.99999988079071045,0,0,0.99999988079071045,-1.1920928955078125E-7,0,-0.48609882593154907,0.22046826779842377,-0.32226037979125977,1]},{"mesh":10,"matrix":[1,0,0,0,0,-1.1920928955078125E-7,-0.99999988079071045,0,0,0.99999988079071045,-1.1920928955078125E-7,0,-0.48609882593154907,0.22046826779842377,-0.32226037979125977,1]},{"mesh":11,"matrix":[1,0,0,0,0,-1.1920928955078125E-7,-0.99999988079071045,0,0,0.99999988079071045,-1.1920928955078125E-7,0,-0.48609882593154907,0.22046826779842377,-0.32226037979125977,1]},{"mesh":12,"matrix":[1,0,0,0,0,-1.1920928955078125E-7,-0.99999988079071045,0,0,0.99999988079071045,-1.1920928955078125E-7,0,-0.48609882593154907,0.22046826779842377,-0.32226037979125977,1]},{"mesh":13,"matrix":[1,0,0,0,0,-1.1920928955078125E-7,-0.99999988079071045,0,0,0.99999988079071045,-1.1920928955078125E-7,0,-0.48609882593154907,0.22046826779842377,-0.32226037979125977,1]},{"mesh":14,"matrix":[1,0,0,0,0,-1.1920928955078125E-7,-0.99999988079071045,0,0,0.99999988079071045,-1.1920928955078125E-7,0,-0.48609882593154907,0.22046826779842377,-0.32226037979125977,1]},{"mesh":15,"matrix":[1,0,0,0,0,-1.1920928955078125E-7,-0.99999988079071045,0,0,0.99999988079071045,-1.1920928955078125E-7,0,-0.48609882593154907,0.22046826779842377,-0.32226037979125977,1]},{"mesh":16,"matrix":[1,0,0,0,0,-1.1920928955078125E-7,-0.99999988079071045,0,0,0.99999988079071045,-1.1920928955078125E-7,0,-0.48609882593154907,0.22046826779842377,-0.32226037979125977,1]},{"mesh":17,"matrix":[1,0,0,0,0,-1.1920928955078125E-7,-0.99999988079071045,0,0,0.99999988079071045,-1.1920928955078125E-7,0,-0.48609882593154907,0.22046826779842377,-0.32226037979125977,1]},{"mesh":18,"matrix":[1,0,0,0,0,-1.1920928955078125E-7,-0.99999988079071045,0,0,0.99999988079071045,-1.1920928955078125E-7,0,-0.48609882593154907,0.22046826779842377,-0.32226037979125977,1]},{"mesh":19,"matrix":[1,0,0,0,0,-1.1920928955078125E-7,-0.99999988079071045,0,0,0.99999988079071045,-1.1920928955078125E-7,0,-0.48609882593154907,0.22046826779842377,-0.32226037979125977,1]}],"meshes":[{"primitives":[{"attributes":{"POSITION":0,"TEXCOORD_0":1},"mode":4,"indices":2,"material":0}]},{"primitives":[{"attributes":{"POSITION":3,"TEXCOORD_0":4},"mode":4,"indices":5,"material":1}]},{"primitives":[{"attributes":{"POSITION":6,"TEXCOORD_0":7},"mode":4,"indices":8,"material":1}]},{"primitives":[{"attributes":{"POSITION":9,"TEXCOORD_0":10},"mode":4,"indices":11,"material":1}]},{"primitives":[{"attributes":{"POSITION":12,"TEXCOORD_0":13},"mode":4,"indices":14,"material":1}]},{"primitives":[{"attributes":{"POSITION":15,"TEXCOORD_0":16},"mode":4,"indices":17,"material":1}]},{"primitives":[{"attributes":{"POSITION":18,"TEXCOORD_0":19},"mode":4,"indices":20,"material":1}]},{"primitives":[{"attributes":{"POSITION":21,"TEXCOORD_0":22},"mode":4,"indices":23,"material":1}]},{"primitives":[{"attributes":{"POSITION":24,"TEXCOORD_0":25},"mode":4,"indices":26,"material":1}]},{"primitives":[{"attributes":{"POSITION":27,"TEXCOORD_0":28},"mode":4,"indices":29,"material":0}]},{"primitives":[{"attributes":{"POSITION":30,"TEXCOORD_0":31},"mode":4,"indices":32,"material":0}]},{"primitives":[{"attributes":{"POSITION":33,"TEXCOORD_0":34},"mode":4,"indices":35,"material":0}]},{"primitives":[{"attributes":{"POSITION":36,"TEXCOORD_0":37},"mode":4,"indices":38,"material":2}]},{"primitives":[{"attributes":{"POSITION":39,"TEXCOORD_0":40},"mode":4,"indices":41,"material":2}]},{"primitives":[{"attributes":{"POSITION":42,"TEXCOORD_0":43},"mode":4,"indices":44,"material":2}]},{"primitives":[{"attributes":{"POSITION":45,"TEXCOORD_0":46},"mode":4,"indices":47,"material":2}]},{"primitives":[{"attributes":{"POSITION":48,"TEXCOORD_0":49},"mode":4,"indices":50,"material":2}]},{"primitives":[{"attributes":{"POSITION":51,"TEXCOORD_0":52},"mode":4,"indices":53,"material":2}]},{"primitives":[{"attributes":{"POSITION":54,"TEXCOORD_0":55},"mode":4,"indices":56,"material":2}]},{"primitives":[{"attributes":{"POSITION":57,"TEXCOORD_0":58},"mode":4,"indices":59,"material":2}]}],"materials":[{"pbrMetallicRoughness":{"baseColorFactor":[1,1,1,1],"metallicFactor":1,"roughnessFactor":1,"baseColorTexture":{"index":0,"texCoord":0},"metallicRoughnessTexture":{"index":1,"texCoord":0}},"alphaMode":"OPAQUE"},{"pbrMetallicRoughness":{"baseColorFactor":[1,1,1,1],"metallicFactor":1,"roughnessFactor":1,"baseColorTexture":{"index":2,"texCoord":0},"metallicRoughnessTexture":{"index":3,"texCoord":0}},"alphaMode":"OPAQUE"},{"pbrMetallicRoughness":{"baseColorFactor":[1,1,1,1],"metallicFactor":1,"roughnessFactor":1,"baseColorTexture":{"index":4,"texCoord":0},"metallicRoughnessTexture":{"index":5,"texCoord":0}},"alphaMode":"OPAQUE"}],"textures":[{"source":0,"sampler":0},{"source":1,"sampler":0},{"source":2,"sampler":0},{"source":3,"sampler":0},{"source":4,"sampler":0},{"source":5,"sampler":0}],"images":[{"uri":"textures\\texture_0_11563080508590297124.png"},{"uri":"textures\\texture_5_17650290037541193437.png"},{"uri":"textures\\texture_4_6195987693227547908.png"},{"uri":"textures\\texture_5_17319628118832143767.png"},{"uri":"textures\\texture_8_5628616909738884392.png"},{"uri":"textures\\texture_5_3010182785424325454.png"}],"samplers":[{"magFilter":9729,"wrapS":10497,"wrapT":10497}],"accessors":[{"bufferView":0,"byteOffset":0,"count":16,"componentType":5126,"type":"VEC3","min":[0.36412188410758972,-0.35805568099021912,0.080514214932918549],"max":[0.60799968242645264,-0.28483691811561584,0.32438644766807556]},{"bufferView":1,"byteOffset":0,"count":16,"componentType":5126,"type":"VEC2"},{"bufferView":2,"byteOffset":0,"count":36,"componentType":5125,"type":"SCALAR"},{"bufferView":3,"byteOffset":0,"count":12,"componentType":5126,"type":"VEC3","min":[0.47554939985275269,-0.36500424146652222,0.14581435918807983],"max":[0.56950348615646362,-0.27951592206954956,0.24123802781105042]},{"bufferView":4,"byteOffset":0,"count":12,"componentType":5126,"type":"VEC2"},{"bufferView":5,"byteOffset":0,"count":36,"componentType":5125,"type":"SCALAR"},{"bufferView":6,"byteOffset":0,"count":12,"componentType":5126,"type":"VEC3","min":[0.40271800756454468,-0.36500424146652222,0.14625595510005951],"max":[0.49743115901947021,-0.27951592206954956,0.24091483652591705]},{"bufferView":7,"byteOffset":0,"count":12,"componentType":5126,"type":"VEC2"},{"bufferView":8,"byteOffset":0,"count":36,"componentType":5125,"type":"SCALAR"},{"bufferView":9,"byteOffset":0,"count":12,"componentType":5126,"type":"VEC3","min":[0.5758545994758606,-0.36500483751296997,-0.026425400748848915],"max":[0.67127829790115356,-0.27951651811599731,0.067528709769248962]},{"bufferView":10,"byteOffset":0,"count":12,"componentType":5126,"type":"VEC2"},{"bufferView":11,"byteOffset":0,"count":36,"componentType":5125,"type":"SCALAR"},{"bufferView":12,"byteOffset":0,"count":12,"componentType":5126,"type":"VEC3","min":[0.57629621028900146,-0.36500483751296997,0.045646939426660538],"max":[0.67095506191253662,-0.27951651811599731,0.14036008715629578]},{"bufferView":13,"byteOffset":0,"count":12,"componentType":5126,"type":"VEC2"},{"bufferView":14,"byteOffset":0,"count":36,"componentType":5125,"type":"SCALAR"},{"bufferView":15,"byteOffset":0,"count":12,"componentType":5126,"type":"VEC3","min":[0.40111592411994934,-0.36500424146652222,-0.12844350934028625],"max":[0.49534544348716736,-0.27951592206954956,-0.033290870487689972]},{"bufferView":16,"byteOffset":0,"count":12,"componentType":5126,"type":"VEC2"},{"bufferView":17,"byteOffset":0,"count":36,"componentType":5125,"type":"SCALAR"},{"bufferView":18,"byteOffset":0,"count":12,"componentType":5126,"type":"VEC3","min":[0.47346222400665283,-0.36500424146652222,-0.12812177836894989],"max":[0.5679023265838623,-0.27951592206954956,-0.033189516514539719]},{"bufferView":19,"byteOffset":0,"count":12,"componentType":5126,"type":"VEC2"},{"bufferView":20,"byteOffset":0,"count":36,"componentType":5125,"type":"SCALAR"},{"bufferView":21,"byteOffset":0,"count":12,"componentType":5126,"type":"VEC3","min":[0.3019784688949585,-0.36500421166419983,0.044301476329565048],"max":[0.39767181873321533,-0.27951595187187195,0.13797882199287415]},{"bufferView":22,"byteOffset":0,"count":12,"componentType":5126,"type":"VEC2"},{"bufferView":23,"byteOffset":0,"count":36,"componentType":5125,"type":"SCALAR"},{"bufferView":24,"byteOffset":0,"count":12,"componentType":5126,"type":"VEC3","min":[0.30230310559272766,-0.36500424146652222,-0.028803424909710884],"max":[0.39668729901313782,-0.27951592206954956,0.066181465983390808]},{"bufferView":25,"byteOffset":0,"count":12,"componentType":5126,"type":"VEC2"},{"bufferView":26,"byteOffset":0,"count":36,"componentType":5125,"type":"SCALAR"},{"bufferView":27,"byteOffset":0,"count":16,"componentType":5126,"type":"VEC3","min":[0.50920796394348145,-0.35805568099021912,-0.064509123563766479],"max":[0.753085732460022,-0.28483691811561584,0.17936311662197113]},{"bufferView":28,"byteOffset":0,"count":16,"componentType":5126,"type":"VEC2"},{"bufferView":29,"byteOffset":0,"count":36,"componentType":5125,"type":"SCALAR"},{"bufferView":30,"byteOffset":0,"count":16,"componentType":5126,"type":"VEC3","min":[0.364181250333786,-0.35805568099021912,-0.21077466011047363],"max":[0.60805904865264893,-0.28483691811561584,0.033097609877586365]},{"bufferView":31,"byteOffset":0,"count":16,"componentType":5126,"type":"VEC2"},{"bufferView":32,"byteOffset":0,"count":36,"componentType":5125,"type":"SCALAR"},{"bufferView":33,"byteOffset":0,"count":16,"componentType":5126,"type":"VEC3","min":[0.2191469818353653,-0.35805568099021912,-0.065705686807632446],"max":[0.4630247950553894,-0.28483691811561584,0.17816659808158875]},{"bufferView":34,"byteOffset":0,"count":16,"componentType":5126,"type":"VEC2"},{"bufferView":35,"byteOffset":0,"count":36,"componentType":5125,"type":"SCALAR"},{"bufferView":36,"byteOffset":0,"count":14,"componentType":5126,"type":"VEC3","min":[0.2129848450422287,-0.3619830310344696,0.053201332688331604],"max":[0.34572190046310425,-0.27974185347557068,0.1847536563873291]},{"bufferView":37,"byteOffset":0,"count":14,"componentType":5126,"type":"VEC2"},{"bufferView":38,"byteOffset":0,"count":36,"componentType":5125,"type":"SCALAR"},{"bufferView":39,"byteOffset":0,"count":14,"componentType":5126,"type":"VEC3","min":[0.20956650376319885,-0.36198249459266663,-0.069622382521629333],"max":[0.34449276328086853,-0.27982595562934875,0.0665542483329773]},{"bufferView":40,"byteOffset":0,"count":14,"componentType":5126,"type":"VEC2"},{"bufferView":41,"byteOffset":0,"count":36,"componentType":5125,"type":"SCALAR"},{"bufferView":42,"byteOffset":0,"count":14,"componentType":5126,"type":"VEC3","min":[0.35852155089378357,-0.36198273301124573,-0.21704995632171631],"max":[0.49007382988929749,-0.28121659159660339,-0.084312945604324341]},{"bufferView":43,"byteOffset":0,"count":14,"componentType":5126,"type":"VEC2"},{"bufferView":44,"byteOffset":0,"count":36,"componentType":5125,"type":"SCALAR"},{"bufferView":45,"byteOffset":0,"count":14,"componentType":5126,"type":"VEC3","min":[0.47672098875045776,-0.36198219656944275,-0.22046834230422974],"max":[0.61289757490158081,-0.28094616532325745,-0.085542090237140656]},{"bufferView":46,"byteOffset":0,"count":14,"componentType":5126,"type":"VEC2"},{"bufferView":47,"byteOffset":0,"count":36,"componentType":5125,"type":"SCALAR"},{"bufferView":48,"byteOffset":0,"count":14,"componentType":5126,"type":"VEC3","min":[0.481392502784729,-0.3619827926158905,0.19740130007266998],"max":[0.6129448413848877,-0.28272822499275208,0.33013832569122314]},{"bufferView":49,"byteOffset":0,"count":14,"componentType":5126,"type":"VEC2"},{"bufferView":50,"byteOffset":0,"count":36,"componentType":5125,"type":"SCALAR"},{"bufferView":51,"byteOffset":0,"count":14,"componentType":5126,"type":"VEC3","min":[0.35856878757476807,-0.36198228597640991,0.19863036274909973],"max":[0.49474537372589111,-0.28213900327682495,0.33355668187141418]},{"bufferView":52,"byteOffset":0,"count":14,"componentType":5126,"type":"VEC2"},{"bufferView":53,"byteOffset":0,"count":36,"componentType":5125,"type":"SCALAR"},{"bufferView":54,"byteOffset":0,"count":14,"componentType":5126,"type":"VEC3","min":[0.62647569179534912,-0.36066117882728577,-0.070844918489456177],"max":[0.75921273231506348,-0.28240475058555603,0.060707405209541321]},{"bufferView":55,"byteOffset":0,"count":14,"componentType":5126,"type":"VEC2"},{"bufferView":56,"byteOffset":0,"count":36,"componentType":5125,"type":"SCALAR"},{"bufferView":57,"byteOffset":0,"count":14,"componentType":5126,"type":"VEC3","min":[0.62770479917526245,-0.36066067218780518,0.047354482114315033],"max":[0.7626311182975769,-0.28218173980712891,0.18353110551834106]},{"bufferView":58,"byteOffset":0,"count":14,"componentType":5126,"type":"VEC2"},{"bufferView":59,"byteOffset":0,"count":36,"componentType":5125,"type":"SCALAR"}],"bufferViews":[{"buffer":0,"byteOffset":0,"byteLength":192,"byteStride":12,"target":34962},{"buffer":0,"byteOffset":192,"byteLength":128,"byteStride":8,"target":34962},{"buffer":0,"byteOffset":320,"byteLength":144,"target":34963},{"buffer":0,"byteOffset":464,"byteLength":144,"byteStride":12,"target":34962},{"buffer":0,"byteOffset":608,"byteLength":96,"byteStride":8,"target":34962},{"buffer":0,"byteOffset":704,"byteLength":144,"target":34963},{"buffer":0,"byteOffset":848,"byteLength":144,"byteStride":12,"target":34962},{"buffer":0,"byteOffset":992,"byteLength":96,"byteStride":8,"target":34962},{"buffer":0,"byteOffset":1088,"byteLength":144,"target":34963},{"buffer":0,"byteOffset":1232,"byteLength":144,"byteStride":12,"target":34962},{"buffer":0,"byteOffset":1376,"byteLength":96,"byteStride":8,"target":34962},{"buffer":0,"byteOffset":1472,"byteLength":144,"target":34963},{"buffer":0,"byteOffset":1616,"byteLength":144,"byteStride":12,"target":34962},{"buffer":0,"byteOffset":1760,"byteLength":96,"byteStride":8,"target":34962},{"buffer":0,"byteOffset":1856,"byteLength":144,"target":34963},{"buffer":0,"byteOffset":2000,"byteLength":144,"byteStride":12,"target":34962},{"buffer":0,"byteOffset":2144,"byteLength":96,"byteStride":8,"target":34962},{"buffer":0,"byteOffset":2240,"byteLength":144,"target":34963},{"buffer":0,"byteOffset":2384,"byteLength":144,"byteStride":12,"target":34962},{"buffer":0,"byteOffset":2528,"byteLength":96,"byteStride":8,"target":34962},{"buffer":0,"byteOffset":2624,"byteLength":144,"target":34963},{"buffer":0,"byteOffset":2768,"byteLength":144,"byteStride":12,"target":34962},{"buffer":0,"byteOffset":2912,"byteLength":96,"byteStride":8,"target":34962},{"buffer":0,"byteOffset":3008,"byteLength":144,"target":34963},{"buffer":0,"byteOffset":3152,"byteLength":144,"byteStride":12,"target":34962},{"buffer":0,"byteOffset":3296,"byteLength":96,"byteStride":8,"target":34962},{"buffer":0,"byteOffset":3392,"byteLength":144,"target":34963},{"buffer":0,"byteOffset":3536,"byteLength":192,"byteStride":12,"target":34962},{"buffer":0,"byteOffset":3728,"byteLength":128,"byteStride":8,"target":34962},{"buffer":0,"byteOffset":3856,"byteLength":144,"target":34963},{"buffer":0,"byteOffset":4000,"byteLength":192,"byteStride":12,"target":34962},{"buffer":0,"byteOffset":4192,"byteLength":128,"byteStride":8,"target":34962},{"buffer":0,"byteOffset":4320,"byteLength":144,"target":34963},{"buffer":0,"byteOffset":4464,"byteLength":192,"byteStride":12,"target":34962},{"buffer":0,"byteOffset":4656,"byteLength":128,"byteStride":8,"target":34962},{"buffer":0,"byteOffset":4784,"byteLength":144,"target":34963},{"buffer":0,"byteOffset":4928,"byteLength":168,"byteStride":12,"target":34962},{"buffer":0,"byteOffset":5096,"byteLength":112,"byteStride":8,"target":34962},{"buffer":0,"byteOffset":5208,"byteLength":144,"target":34963},{"buffer":0,"byteOffset":5352,"byteLength":168,"byteStride":12,"target":34962},{"buffer":0,"byteOffset":5520,"byteLength":112,"byteStride":8,"target":34962},{"buffer":0,"byteOffset":5632,"byteLength":144,"target":34963},{"buffer":0,"byteOffset":5776,"byteLength":168,"byteStride":12,"target":34962},{"buffer":0,"byteOffset":5944,"byteLength":112,"byteStride":8,"target":34962},{"buffer":0,"byteOffset":6056,"byteLength":144,"target":34963},{"buffer":0,"byteOffset":6200,"byteLength":168,"byteStride":12,"target":34962},{"buffer":0,"byteOffset":6368,"byteLength":112,"byteStride":8,"target":34962},{"buffer":0,"byteOffset":6480,"byteLength":144,"target":34963},{"buffer":0,"byteOffset":6624,"byteLength":168,"byteStride":12,"target":34962},{"buffer":0,"byteOffset":6792,"byteLength":112,"byteStride":8,"target":34962},{"buffer":0,"byteOffset":6904,"byteLength":144,"target":34963},{"buffer":0,"byteOffset":7048,"byteLength":168,"byteStride":12,"target":34962},{"buffer":0,"byteOffset":7216,"byteLength":112,"byteStride":8,"target":34962},{"buffer":0,"byteOffset":7328,"byteLength":144,"target":34963},{"buffer":0,"byteOffset":7472,"byteLength":168,"byteStride":12,"target":34962},{"buffer":0,"byteOffset":7640,"byteLength":112,"byteStride":8,"target":34962},{"buffer":0,"byteOffset":7752,"byteLength":144,"target":34963},{"buffer":0,"byteOffset":7896,"byteLength":168,"byteStride":12,"target":34962},{"buffer":0,"byteOffset":8064,"byteLength":112,"byteStride":8,"target":34962},{"buffer":0,"byteOffset":8176,"byteLength":144,"target":34963}],"buffers":[{"byteLength":8320,"uri":"re5q pin 3d Pin Design 2.bin"}]}